# xmcd
# 
# Track frame offsets:
#     150
#     22535
#     44923
#     65385
#     84985
#     99648
#     118660
#     131973
#     146260
# 
# Disc length: 2168
# 
# Revision: 7
# Processed by: cddbd v1.5.2PL0 Copyright (c) Steve Scherf et al.
# Submitted via: fre:ac v1.0.31
# 
DISCID=76087609
DTITLE=Cream - Wheels of Fire Disc 1
DYEAR=1968
DGENRE=Rock
TTITLE0=White Room
TTITLE1=Sitting on Top of the World
TTITLE2=Passing The Time
TTITLE3=As You Said
TTITLE4=Pressed Rat and Warthog
TTITLE5=Politician
TTITLE6=Those Were the Days
TTITLE7=Born Under a Bad Sign
TTITLE8=Deserted Cities of the Heart
EXTD=YEAR: 1968
EXTT0=J. Bruce, P. Brown [#6]
EXTT1=C. Burmett
EXTT2=G. Baker, M. Taylor
EXTT3=J. Bruce, P. Brown
EXTT4=G. Baker, M. Taylor
EXTT5=J. Bruce, P. Brown
EXTT6=G. Baker, M. Taylor
EXTT7=B. T. Jones, W. Bell
EXTT8=J. Bruce, P. Brown
PLAYORDER=
